<svg width="23" height="25" viewBox="0 0 23 25" fill="none" xmlns="http://www.w3.org/2000/svg">
<path d="M0.873201 24.4906L12.3978 12.6418L0.882856 0.814209C0.575294 0.998351 0.384964 1.42471 0.384964 1.98281V23.3333C0.389089 23.8914 0.572535 24.2866 0.873201 24.4906Z" fill="black"/>
<path d="M12.8102 12.3156L16.2431 8.78577L2.26348 0.904517C2.02808 0.763894 1.76069 0.689616 1.48837 0.689209L12.8089 12.3142L12.8102 12.3156Z" fill="black"/>
<path d="M12.8101 12.9717L1.45375 24.6477C1.73878 24.6526 2.01954 24.5761 2.26472 24.4267L16.2719 16.5242L12.8101 12.9717Z" fill="black"/>
<path d="M21.3079 11.6459L16.6559 9.01831L13.1293 12.6445L16.6821 16.2933L21.3065 13.6728C22.2899 13.1162 22.2899 12.1997 21.3079 11.6459Z" fill="black"/>
</svg>
