<svg width="14" height="14" viewBox="0 0 14 14" fill="none" xmlns="http://www.w3.org/2000/svg">
<path d="M2.33325 8.74999V4.95833C2.33325 4.26213 2.60981 3.59446 3.1021 3.10217C3.59438 2.60989 4.26206 2.33333 4.95825 2.33333C5.65445 2.33333 6.32212 2.60989 6.81441 3.10217C7.30669 3.59446 7.58325 4.26213 7.58325 4.95833V9.04166C7.58325 9.42843 7.7369 9.79937 8.01039 10.0729C8.28388 10.3463 8.65481 10.5 9.04159 10.5C9.42836 10.5 9.79929 10.3463 10.0728 10.0729C10.3463 9.79937 10.4999 9.42843 10.4999 9.04166V5.15083C10.1105 5.01322 9.78236 4.74238 9.57338 4.38619C9.36439 4.03 9.28805 3.6114 9.35786 3.20437C9.42767 2.79734 9.63913 2.42809 9.95487 2.1619C10.2706 1.89571 10.6703 1.74971 11.0833 1.74971C11.4962 1.74971 11.8959 1.89571 12.2116 2.1619C12.5274 2.42809 12.7388 2.79734 12.8086 3.20437C12.8785 3.6114 12.8021 4.03 12.5931 4.38619C12.3841 4.74238 12.056 5.01322 11.6666 5.15083V9.04166C11.6666 9.73785 11.39 10.4055 10.8977 10.8978C10.4055 11.3901 9.73778 11.6667 9.04159 11.6667C8.34539 11.6667 7.67771 11.3901 7.18543 10.8978C6.69315 10.4055 6.41659 9.73785 6.41659 9.04166V4.95833C6.41659 4.57155 6.26294 4.20062 5.98945 3.92713C5.71596 3.65364 5.34503 3.49999 4.95825 3.49999C4.57148 3.49999 4.20055 3.65364 3.92705 3.92713C3.65356 4.20062 3.49992 4.57155 3.49992 4.95833V8.74999H5.24992L2.91659 11.6667L0.583252 8.74999H2.33325Z" fill="black"/>
</svg>
