<svg width="20" height="24" viewBox="0 0 20 24" fill="none" xmlns="http://www.w3.org/2000/svg">
<path d="M16.21 12.4155C16.184 9.5518 18.5755 8.15862 18.6848 8.09376C17.3305 6.13637 15.2312 5.86893 14.4935 5.84761C12.7304 5.66369 11.0202 6.89338 10.1221 6.89338C9.20601 6.89338 7.82295 5.86538 6.33233 5.89559C4.41416 5.92491 2.61968 7.02577 1.63549 8.73526C-0.395623 12.2209 1.1192 17.3431 3.06516 20.1606C4.03859 21.5404 5.17605 23.0811 6.66488 23.0269C8.12144 22.9674 8.66552 22.1064 10.4232 22.1064C12.1648 22.1064 12.6758 23.0269 14.1942 22.9923C15.7574 22.9674 16.7416 21.6062 17.6809 20.2139C18.8059 18.6324 19.2576 17.0748 19.2755 16.9948C19.2388 16.9824 16.2396 15.8478 16.21 12.4155Z" fill="black"/>
<path d="M13.3421 3.9942C14.1255 3.02306 14.6615 1.70184 14.5127 0.361084C13.3789 0.41084 11.9609 1.13853 11.1443 2.08834C10.4218 2.92532 9.77646 4.29718 9.94318 5.58729C11.2169 5.68147 12.5247 4.95023 13.3421 3.9942Z" fill="black"/>
</svg>
