<svg width="117" height="43" viewBox="0 0 117 43" fill="none" xmlns="http://www.w3.org/2000/svg">
<path d="M35.4438 0.0754776C34.6626 0.234627 34.3443 0.42271 33.5919 1.10271C32.1741 2.40483 29.9894 8.66948 28.6149 15.3248C28.2243 17.2056 28.0073 17.9724 27.8337 18.0737C27.2549 18.4354 27.1681 17.3358 27.5154 14.1094C27.7324 12.1273 27.8047 11.6788 28.3256 9.47968C28.7307 7.78693 28.7307 7.74352 28.6005 7.74352C28.2532 7.74352 27.8915 8.06182 26.4737 9.6533C25.5188 10.7384 24.7375 11.4763 24.4337 11.6065C23.7392 11.8958 22.9001 11.7367 22.0031 11.129C20.5563 10.1597 15.6082 8.10522 15.3478 8.36565C15.2899 8.40905 15.4346 9.43628 15.6661 10.6227C15.912 11.809 16.0712 12.8507 16.0422 12.9375C15.8976 13.3571 15.5648 12.9809 15.0584 11.8235C14.581 10.7384 14.335 10.3912 13.3078 9.36394C12.6423 8.71288 12.1069 8.06182 12.1069 7.91714C12.1069 7.56991 11.7018 3.17163 11.5861 2.40483L11.4993 1.76823L10.6457 1.86951C10.1827 1.91291 9.40142 1.99972 8.92397 2.04313C7.86781 2.15887 7.91121 1.85504 8.43206 5.73247L8.80823 8.5682L8.21504 10.3912C7.18781 13.6465 7.14441 14.3843 7.92568 17.1911C8.27291 18.4209 8.33079 18.7971 8.18611 18.9707C7.75207 19.506 7.14441 19.0141 6.95633 17.9435C6.78271 16.9162 6.46441 16.2796 6.07378 16.1928C5.33591 16.0048 4.09166 16.9018 3.35379 18.1316C3.00656 18.7247 2.81848 18.8839 2.41337 18.9562C0.706147 19.2745 -0.335549 20.6924 0.0984908 22.0958C0.315511 22.8771 1.16912 23.7017 1.9938 23.9622L2.61592 24.1647L3.15124 26.1902C3.4406 27.3043 4.4823 31.2396 5.45165 34.9434C6.42101 38.6472 7.27462 41.917 7.36143 42.2208L7.52058 42.7561L23.0013 42.7272L38.4821 42.6838L39.4515 38.9221C42.7068 26.3204 43.4446 23.6149 43.6472 23.5571C44.4863 23.2677 45.1519 22.8337 45.4702 22.3562C46.208 21.2422 46.0778 20.2584 45.0506 19.1588C44.7178 18.7971 44.2548 18.2473 44.0234 17.9579C43.517 17.2779 42.4174 16.569 41.8966 16.569C41.3757 16.569 40.9706 17.0899 40.7536 18.0592C40.4787 19.2601 40.4642 19.3035 40.1604 19.3903C39.7119 19.535 39.1621 19.1009 39.1621 18.5945C39.1621 18.146 39.4515 15.9758 39.8132 13.7477C40.334 10.5937 40.4498 8.40905 40.2472 6.29672C39.871 2.53504 39.654 1.84058 38.6413 0.943558C37.7298 0.14782 36.6013 -0.15601 35.4438 0.0754776ZM36.8183 4.6329C37.2379 4.76311 37.6574 4.9946 37.7876 5.18269C38.0047 5.48652 37.9902 5.51545 37.6574 5.81928C36.6591 6.67289 33.563 6.20992 33.4038 5.18269C33.3026 4.51716 35.3281 4.19886 36.8183 4.6329ZM36.7894 8.40905C38.9885 9.01671 38.3519 10.0295 35.7621 10.0439C34.5179 10.0584 33.1724 9.78351 32.5792 9.39288C31.1613 8.46692 34.3153 7.71459 36.7894 8.40905ZM36.4277 12.1563C36.8038 12.2865 37.2234 12.518 37.3681 12.6916C37.6285 12.9665 37.6285 12.9809 37.3102 13.2414C36.3408 14.0371 32.5792 13.6899 31.7979 12.7495C31.6243 12.5324 31.6243 12.4746 31.8124 12.272C31.9426 12.1563 32.2609 11.9971 32.5213 11.9248C33.2592 11.7367 35.6753 11.8814 36.4277 12.1563ZM18.0822 14.3699C18.7043 14.7894 19.3699 15.5273 19.312 15.7154C19.2831 15.7877 18.5307 16.6269 17.6337 17.5818C16.0712 19.2311 15.9699 19.3179 15.4201 19.3179C14.7546 19.3179 14.3784 18.9996 13.9733 18.1171C13.4525 16.9596 13.7129 15.6865 14.6533 14.746C15.6227 13.7622 16.9827 13.6175 18.0822 14.3699ZM24.969 15.8022C25.8805 16.3665 26.4737 17.3503 26.546 18.4643L26.6039 19.3179H23.2618H19.9197V18.6958C19.9197 17.4516 20.9758 15.9469 22.1622 15.4839C23.0013 15.1656 24.1443 15.2958 24.969 15.8022ZM36.2106 16.2941C37.0787 16.7282 37.18 17.0465 36.5289 17.3792C35.3715 17.9869 32.0873 17.712 31.3639 16.9452C30.7128 16.2507 31.769 15.8167 33.9681 15.889C35.2413 15.9324 35.6174 16.0048 36.2106 16.2941ZM25.5188 24.2371C25.7792 24.7434 25.7647 37.4753 25.5043 37.9961C25.3452 38.3434 25.3162 38.3434 23.175 38.3434C21.0192 38.3434 21.0192 38.3434 20.8311 37.9817C20.5418 37.4319 20.6286 24.3817 20.918 24.0345C21.0916 23.8319 21.3954 23.803 23.2328 23.8319C25.3162 23.8754 25.3452 23.8754 25.5188 24.2371ZM34.9809 24.0924C35.1111 24.1647 35.2413 24.3383 35.2847 24.483C35.3136 24.6277 35.0966 27.7383 34.7928 31.3987C34.2864 37.5766 34.2285 38.0685 33.9536 38.3C33.6932 38.517 33.4038 38.5314 31.8847 38.4736C29.6277 38.3723 29.4975 38.3434 29.3817 37.9093C29.2371 37.3306 30.2932 24.2371 30.5102 23.9911C30.6694 23.803 30.9877 23.7741 32.7094 23.8754C33.8234 23.9188 34.8506 24.0345 34.9809 24.0924ZM15.1742 24.3383C15.3478 24.5409 15.5648 26.2192 16.1001 31.4421C16.7222 37.62 16.7656 38.3 16.5631 38.5025C16.3895 38.6761 15.8686 38.7485 14.2627 38.8063C12.3529 38.8787 12.1648 38.8642 11.9333 38.6183C11.7452 38.4012 11.5572 36.9978 11.0074 31.6447C10.3997 25.7707 10.3418 24.9315 10.5155 24.7434C10.6457 24.6132 11.3546 24.4541 12.324 24.3383C14.5665 24.049 14.9137 24.049 15.1742 24.3383Z" fill="#E80001"/>
<path d="M53.7605 18.4353C53.2976 18.8983 53.1963 19.1008 53.1963 19.5493C53.1963 20.6778 54.0788 21.488 55.3086 21.488C56.8567 21.488 57.8839 19.9689 57.1605 18.7391C56.7844 18.117 56.2346 17.871 55.2218 17.871C54.3682 17.871 54.2959 17.9 53.7605 18.4353Z" fill="black"/>
<path d="M110.605 21.5894L110.562 22.8626L109.882 22.906L109.188 22.9494V24.1647V25.38L109.882 25.4234L110.562 25.4668L110.634 27.854C110.721 30.4872 110.793 30.791 111.705 31.5723C111.98 31.8183 112.457 32.1076 112.761 32.2089C113.528 32.4838 115.77 32.4549 116.436 32.1655L116.971 31.934L116.537 30.7042L116.103 29.4889L115.597 29.6625C114.989 29.8795 114.656 29.8072 114.295 29.4166C114.078 29.1706 114.034 28.8668 114.034 27.2898V25.4668L115.163 25.4234L116.277 25.38V24.1647V22.9494L115.163 22.906L114.034 22.8626L113.991 21.5894L113.947 20.3307H112.298H110.649L110.605 21.5894Z" fill="black"/>
<path d="M64.1192 22.6021C63.7141 22.7468 63.1788 23.0217 62.9184 23.1953L62.4554 23.5281V23.0217V22.5009H60.8639H59.2725V27.42V32.3391H60.9363H62.6001V29.8651C62.6001 28.5196 62.6724 27.1162 62.7593 26.7545C63.0631 25.5681 64.2495 24.9749 65.3056 25.4813C66.1014 25.8864 66.2026 26.2915 66.2026 29.5468L66.2171 32.3391H67.9677H69.7184L69.646 28.8957C69.6171 26.9859 69.5013 25.2353 69.4145 24.946C69.1541 24.0779 68.4452 23.2677 67.6494 22.8481C66.6367 22.3417 65.132 22.2404 64.1192 22.6021Z" fill="black"/>
<path d="M76.8515 22.4864C76.3162 22.6311 75.5204 23.0217 75.4047 23.2243C75.2311 23.5136 75.043 23.3689 75.043 22.9349V22.5009H73.3792H71.7153V27.42V32.3391H73.4515H75.1877V29.5902C75.1877 27.5357 75.2455 26.7111 75.3902 26.3349C75.8242 25.3077 77.1553 24.9749 77.9076 25.7272L78.2983 26.1179L78.3417 29.2285L78.3851 32.3391H80.1068H81.8285L81.8719 29.3876C81.9153 26.6532 81.9442 26.3928 82.2191 26.0166C82.8846 25.1196 84.0421 25.0472 84.6497 25.8719C84.9246 26.2481 84.9536 26.494 84.997 29.3153L85.0404 32.3391H86.791H88.5272L88.4693 28.8234C88.4114 25.5391 88.3969 25.2787 88.0786 24.5698C87.3987 23.0507 85.9084 22.226 84.0999 22.3996C83.0293 22.5009 82.3059 22.7902 81.6259 23.3834L81.1195 23.8319L80.7723 23.4702C79.991 22.6311 78.0957 22.1536 76.8515 22.4864Z" fill="black"/>
<path d="M92.8383 22.5733C91.8256 22.7903 90.5234 23.3401 90.5234 23.5426C90.5234 23.6439 91.4928 25.655 91.5941 25.7852C91.6085 25.7997 91.9268 25.6694 92.303 25.4814C93.1855 25.0328 94.2851 24.8882 95.0809 25.1052C95.7898 25.3077 96.0936 25.5826 96.2383 26.1324L96.3396 26.5231L94.4009 26.5809C92.7081 26.6243 92.3753 26.6822 91.6664 27.015C90.6102 27.4924 90.1907 28.0856 90.1183 29.1707C90.0315 30.2558 90.2775 30.9069 90.9575 31.529C92.3464 32.7877 95.0809 32.7732 96.2528 31.5145L96.6 31.1383V31.746V32.3392H98.2059H99.8119L99.754 28.8958C99.7106 25.6839 99.6961 25.4235 99.3779 24.7435C98.9583 23.832 98.5821 23.4269 97.7574 23.0073C96.4987 22.3707 94.6034 22.1971 92.8383 22.5733ZM96.3106 28.7801C96.3106 30.0098 94.6034 30.7477 93.6775 29.923C93.1566 29.4456 93.4604 28.5775 94.2128 28.3894C94.3719 28.3605 94.9072 28.3171 95.4136 28.3026L96.3106 28.2882V28.7801Z" fill="black"/>
<path d="M106.988 22.5587C106.612 22.66 106.091 22.9204 105.802 23.123C105.527 23.34 105.266 23.5136 105.223 23.5136C105.179 23.5136 105.136 23.2821 105.136 23.0072V22.5009H103.545H101.953V27.42V32.3391H103.675H105.411L105.454 29.46L105.498 26.5664L105.917 26.1323C106.38 25.6404 107.06 25.3945 107.928 25.3945H108.464V23.8753V22.3562L108.073 22.3707C107.842 22.3707 107.364 22.4575 106.988 22.5587Z" fill="black"/>
<path d="M53.6304 27.42V32.3391H55.2942H56.958V27.42V22.5009H55.2942H53.6304V27.42Z" fill="black"/>
<path d="M54.0641 35.7101C53.7747 35.8548 53.6879 36.0139 53.659 36.4914C53.6156 37.0267 53.659 37.1135 54.0207 37.3016C54.2377 37.4173 54.6139 37.5475 54.8598 37.6054C55.0913 37.6633 55.3807 37.779 55.4675 37.8658C55.7568 38.0973 55.6845 38.6616 55.3373 38.9075C54.9322 39.1969 54.5415 39.1969 54.0062 38.922C53.5288 38.676 53.4854 38.6616 53.4854 38.8207C53.4854 39.0377 54.1943 39.2837 54.7875 39.2837C55.4675 39.2837 55.9449 38.8931 55.9449 38.3577C55.9449 37.9092 55.6556 37.6199 54.9756 37.4029C53.7892 37.0267 53.4854 36.5492 54.0641 36.0284C54.339 35.7824 54.9756 35.768 55.5543 36.0284C55.9449 36.202 55.8436 35.8692 55.4385 35.6956C54.9611 35.4786 54.5126 35.4786 54.0641 35.7101Z" fill="black"/>
<path d="M59.3014 37.0267C59.3448 38.3867 59.3882 38.5892 59.692 38.9075C59.9524 39.1824 60.1984 39.2837 60.589 39.2837C61.7899 39.2837 62.0358 38.8641 61.9924 36.8675L61.978 35.4497L61.8767 36.9543C61.7899 38.3722 61.7609 38.4735 61.3703 38.8062C61.052 39.0811 60.8639 39.139 60.5167 39.0811C59.721 38.922 59.5618 38.5603 59.5618 36.9543C59.5618 35.9995 59.5039 35.522 59.4027 35.522C59.2869 35.522 59.258 35.985 59.3014 37.0267Z" fill="black"/>
<path d="M65.7832 37.3884C65.7832 38.5603 65.8411 39.2837 65.9279 39.2837C66.0147 39.2837 66.0726 39.0377 66.0726 38.7194V38.1552L66.8972 38.0973C67.5628 38.0394 67.7798 37.9526 68.0547 37.6343C68.4887 37.128 68.4743 36.5203 68.0402 36.0139C67.7509 35.6667 67.5772 35.6088 66.7381 35.5509L65.7832 35.4931V37.3884ZM67.7798 36.0429C68.0113 36.202 68.0981 36.4046 68.0981 36.8241C68.0981 37.5475 67.7074 37.8369 66.767 37.8369H66.0726V36.8241V35.8114H66.767C67.1577 35.8114 67.5917 35.9126 67.7798 36.0429Z" fill="black"/>
<path d="M71.8599 37.4029V39.2837L73.0607 39.2548L74.2471 39.2258L73.162 39.1535L72.0769 39.0667L72.0335 38.2999L71.9901 37.5475H72.9305C73.4658 37.5475 73.8854 37.4897 73.8854 37.4029C73.8854 37.316 73.4803 37.2582 72.945 37.2582H72.0045V36.5348V35.8114H73.0173C73.596 35.8114 74.0301 35.7535 74.0301 35.6667C74.0301 35.5799 73.5671 35.522 72.945 35.522H71.8599V37.4029Z" fill="black"/>
<path d="M77.647 37.3884C77.647 38.5603 77.7048 39.2837 77.7917 39.2837C77.8785 39.2837 77.9363 39.0233 77.9363 38.705V38.1263H78.5874C79.1806 38.1263 79.2674 38.1697 79.6146 38.705C79.8316 39.0233 80.0631 39.2837 80.1355 39.2837C80.2801 39.2837 80.2223 39.1535 79.7882 38.5169L79.4989 38.1263L79.875 37.6777C80.338 37.128 80.3525 36.5348 79.904 36.0139C79.6146 35.6667 79.441 35.6088 78.6019 35.5509L77.647 35.4931V37.3884ZM79.6436 36.0429C79.875 36.202 79.9619 36.4046 79.9619 36.8241C79.9619 37.5475 79.5712 37.8369 78.6308 37.8369H77.9363V36.8241V35.8114H78.6308C79.0214 35.8114 79.4555 35.9126 79.6436 36.0429Z" fill="black"/>
<path d="M83.7523 37.403L83.7813 39.3562L83.8536 37.7647C83.9549 35.9707 83.9404 35.9707 84.8664 37.8081C85.1123 38.3 85.3872 38.7051 85.4596 38.7051C85.5319 38.7051 85.8357 38.2277 86.1251 37.649C86.9642 35.9852 86.9642 35.9852 87.0655 37.7792L87.1379 39.3562L87.1668 37.403C87.1957 35.4788 87.1813 35.4498 86.9208 35.7971C86.7762 35.9996 86.4 36.6652 86.0962 37.2873C85.7923 37.9094 85.503 38.4158 85.4596 38.4158C85.4162 38.4158 85.1268 37.9094 84.823 37.2873C84.5191 36.6652 84.143 35.9996 83.9983 35.7971C83.7379 35.4498 83.7234 35.4788 83.7523 37.403Z" fill="black"/>
<path d="M91.8403 35.8403C91.7679 36.0284 91.4062 36.8675 91.0445 37.7211C90.6828 38.5892 90.4369 39.2837 90.5092 39.2837C90.5671 39.2837 90.7262 39.0522 90.8565 38.7773L91.1024 38.2709H92.1007H93.1135L93.2871 38.7773C93.3884 39.0522 93.533 39.2837 93.6054 39.2837C93.7645 39.2837 93.7645 39.2837 92.8675 37.1424C92.4913 36.2599 92.1441 35.522 92.0718 35.522C92.0139 35.522 91.8982 35.6667 91.8403 35.8403ZM92.5926 37.0701L92.9688 37.9816H92.1152C91.6377 37.9816 91.2471 37.9526 91.2471 37.9092C91.2471 37.6633 92.0428 35.9705 92.1152 36.0573C92.173 36.1297 92.3901 36.5782 92.5926 37.0701Z" fill="black"/>
<path d="M97.0631 37.4318C97.0776 38.488 97.1065 39.0811 97.1355 38.7339L97.1933 38.1263H97.9023C98.5823 38.1263 98.6257 38.1552 98.944 38.705C99.132 39.0233 99.3201 39.2837 99.3925 39.2837C99.5661 39.2837 99.5082 39.1535 99.132 38.6037L98.7848 38.0828L99.132 37.7501C99.5227 37.3884 99.624 36.6071 99.3491 36.1007C99.1754 35.768 98.4665 35.522 97.6708 35.522H97.0342L97.0631 37.4318ZM99.0452 36.1875C99.2188 36.4046 99.3491 36.6795 99.3491 36.8241C99.3491 36.9688 99.2188 37.2437 99.0452 37.4607C98.7848 37.779 98.6401 37.8369 97.9601 37.8369H97.1789V36.8241V35.8114H97.9601C98.6401 35.8114 98.7848 35.8692 99.0452 36.1875Z" fill="black"/>
<path d="M103.168 37.4029C103.154 38.4736 103.183 39.1246 103.212 38.8353C103.255 38.5025 103.414 38.1697 103.675 37.9238L104.094 37.5187L104.774 38.3723C105.151 38.8353 105.527 39.2404 105.599 39.2693C105.787 39.3416 105.657 39.1102 104.861 38.0829L104.239 37.2583L104.991 36.3902C106.12 35.0736 105.628 35.3485 104.398 36.7085L103.328 37.8948L103.241 36.6651C103.183 35.6378 103.168 35.7391 103.168 37.4029Z" fill="black"/>
<path d="M109.042 37.4029V39.2837L110.243 39.2548L111.43 39.2258L110.345 39.1535L109.26 39.0667L109.216 38.2999L109.173 37.5475H110.113C110.648 37.5475 111.068 37.4897 111.068 37.4029C111.068 37.316 110.663 37.2582 110.128 37.2582H109.187V36.5348V35.8114H110.2C110.779 35.8114 111.213 35.7535 111.213 35.6667C111.213 35.5799 110.75 35.522 110.128 35.522H109.042V37.4029Z" fill="black"/>
<path d="M114.251 35.6669C114.251 35.7392 114.54 35.8115 114.902 35.8115H115.539L115.597 37.5766L115.64 39.3562L115.669 37.5766L115.698 35.8115H116.349C116.711 35.8115 117 35.7392 117 35.6669C117 35.5801 116.45 35.5222 115.625 35.5222C114.801 35.5222 114.251 35.5801 114.251 35.6669Z" fill="black"/>
</svg>
