<svg width="14" height="14" viewBox="0 0 14 14" fill="none" xmlns="http://www.w3.org/2000/svg">
<path d="M7.00008 12.8333C3.77833 12.8333 1.16675 10.2218 1.16675 7.00001C1.16675 3.77826 3.77833 1.16667 7.00008 1.16667C10.2218 1.16667 12.8334 3.77826 12.8334 7.00001C12.8334 10.2218 10.2218 12.8333 7.00008 12.8333ZM7.00008 11.6667C8.23776 11.6667 9.42474 11.175 10.2999 10.2998C11.1751 9.42467 11.6667 8.23768 11.6667 7.00001C11.6667 5.76233 11.1751 4.57534 10.2999 3.70017C9.42474 2.825 8.23776 2.33334 7.00008 2.33334C5.7624 2.33334 4.57542 2.825 3.70025 3.70017C2.82508 4.57534 2.33341 5.76233 2.33341 7.00001C2.33341 8.23768 2.82508 9.42467 3.70025 10.2998C4.57542 11.175 5.7624 11.6667 7.00008 11.6667ZM7.58342 7.00001H9.91675V8.16667H6.41675V4.08334H7.58342V7.00001Z" fill="black"/>
</svg>
